<?xml version="1.0" encoding="UTF-8" standalone="no"?>
<svg
   width="728"
   height="458"
   version="1.1"
   id="svg11"
   sodipodi:docname="features-illustration-mod.svg"
   inkscape:version="1.3.2 (091e20e, 2023-11-25, custom)"
   xmlns:inkscape="http://www.inkscape.org/namespaces/inkscape"
   xmlns:sodipodi="http://sodipodi.sourceforge.net/DTD/sodipodi-0.dtd"
   xmlns="http://www.w3.org/2000/svg"
   xmlns:svg="http://www.w3.org/2000/svg">
  <sodipodi:namedview
     id="namedview11"
     pagecolor="#ffffff"
     bordercolor="#000000"
     borderopacity="0.25"
     inkscape:showpageshadow="2"
     inkscape:pageopacity="0.0"
     inkscape:pagecheckerboard="0"
     inkscape:deskcolor="#d1d1d1"
     inkscape:zoom="1.7925764"
     inkscape:cx="364.00122"
     inkscape:cy="273.6285"
     inkscape:window-width="2560"
     inkscape:window-height="1017"
     inkscape:window-x="1912"
     inkscape:window-y="-8"
     inkscape:window-maximized="1"
     inkscape:current-layer="g11" />
  <defs
     id="defs5">
    <linearGradient
       x1="50%"
       y1="0%"
       x2="50%"
       y2="100%"
       id="a">
      <stop
         stop-color="#FFBC48"
         offset="0%"
         id="stop1" />
      <stop
         stop-color="#FFBC48"
         stop-opacity=".48"
         offset="100%"
         id="stop2" />
    </linearGradient>
    <linearGradient
       x1="74.95%"
       y1="53.242%"
       x2="2.797%"
       y2="52.227%"
       id="b">
      <stop
         stop-color="#61EFFD"
         stop-opacity="0"
         offset="0%"
         id="stop3" />
      <stop
         stop-color="#61EFFD"
         offset="51.929%"
         id="stop4" />
      <stop
         stop-color="#535FD7"
         offset="100%"
         id="stop5" />
    </linearGradient>
  </defs>
  <g
     fill="none"
     fill-rule="evenodd"
     id="g11">
    <path
       d="M256.233 420c185.316 72 210-94.02 210-210s-94.02-210-210-210-72.077 159.293-191.655 218.75C-55 278.207 70.916 348 256.233 420z"
       fill="url(#b)"
       id="path6" />
    <path
       fill="#61EFFD"
       d="M3.686 200l-2.899 1.334L0 204.157l.926 2.688L3.686 208l2.6-1.31L8 204.156l-1.295-2.94z"
       id="path7" />
    <path
       fill="#2FEAFC"
       d="M56.304 231l-1.812.833-.492 1.765.579 1.68 1.725.722 1.624-.82L59 233.599l-.81-1.837zm-24-19l-1.812.833-.492 1.765.579 1.68 1.725.722 1.624-.82L35 214.599l-.81-1.837z"
       id="path8" />
    <path
       fill="#93F4FE"
       d="M20.304 166l-1.812.833-.492 1.765.579 1.68 1.725.722 1.624-.82L23 168.599l-.81-1.837z"
       id="path9" />
    <path
       fill-opacity=".24"
       fill="#61EFFD"
       d="M69.304 202l-1.812.833-.492 1.765.579 1.68 1.725.722 1.624-.82L72 204.599l-.81-1.837z"
       id="path10" />
    <path
       fill-opacity=".24"
       fill="#535FD7"
       d="M61.304 168l-1.812.833-.492 1.765.579 1.68 1.725.722 1.624-.82L64 170.599l-.81-1.837z"
       id="path11" />
  </g>
</svg>
